<svg width="1200" height="600" viewBox="0 0 1200 600" fill="none" xmlns="http://www.w3.org/2000/svg">
  <!-- 배경 -->
  <rect width="1200" height="600" fill="url(#bgGradient)"/>
  
  <!-- 미니멀한 기하학적 요소들 -->
  <g opacity="0.2">
    <!-- 큰 원 -->
    <circle cx="200" cy="200" r="100" fill="white"/>
    <circle cx="1000" cy="400" r="120" fill="white"/>
    
    <!-- 중간 원들 -->
    <circle cx="400" cy="500" r="60" fill="white"/>
    <circle cx="800" cy="150" r="80" fill="white"/>
    
    <!-- 작은 원들 -->
    <circle cx="100" cy="400" r="30" fill="white"/>
    <circle cx="1100" cy="200" r="40" fill="white"/>
    <circle cx="600" cy="100" r="25" fill="white"/>
    <circle cx="300" cy="350" r="35" fill="white"/>
    <circle cx="900" cy="550" r="20" fill="white"/>
  </g>
  
  <!-- 선형 요소들 -->
  <g stroke="white" stroke-width="3" opacity="0.3" fill="none">
    <!-- 수직선들 -->
    <line x1="150" y1="0" x2="150" y2="600"/>
    <line x1="1050" y1="0" x2="1050" y2="600"/>
    <line x1="600" y1="0" x2="600" y2="600"/>
    
    <!-- 수평선들 -->
    <line x1="0" y1="150" x2="1200" y2="150"/>
    <line x1="0" y1="450" x2="1200" y2="450"/>
    <line x1="0" y1="300" x2="1200" y2="300"/>
  </g>
  
  <!-- 대각선들 -->
  <g stroke="white" stroke-width="2" opacity="0.2" fill="none">
    <line x1="0" y1="0" x2="1200" y2="600"/>
    <line x1="0" y1="600" x2="1200" y2="0"/>
  </g>
  
  <!-- 점들 -->
  <g fill="white" opacity="0.4">
    <circle cx="300" cy="300" r="4"/>
    <circle cx="500" cy="200" r="3"/>
    <circle cx="700" cy="400" r="5"/>
    <circle cx="900" cy="300" r="3"/>
    <circle cx="200" cy="500" r="4"/>
    <circle cx="1000" cy="150" r="3"/>
  </g>
  
  <defs>
    <linearGradient id="bgGradient" x1="0%" y1="0%" x2="100%" y2="100%">
      <stop offset="0%" style="stop-color:#2c3e50;stop-opacity:1" />
      <stop offset="25%" style="stop-color:#34495e;stop-opacity:1" />
      <stop offset="50%" style="stop-color:#3498db;stop-opacity:1" />
      <stop offset="75%" style="stop-color:#2980b9;stop-opacity:1" />
      <stop offset="100%" style="stop-color:#1f4e79;stop-opacity:1" />
    </linearGradient>
  </defs>
</svg>
